<?xml version="1.0" standalone="no"?>
<!DOCTYPE svg PUBLIC "-//W3C//DTD SVG 20010904//EN"
 "http://www.w3.org/TR/2001/REC-SVG-20010904/DTD/svg10.dtd">
<svg version="1.0" xmlns="http://www.w3.org/2000/svg"
 width="700.000000pt" height="700.000000pt" viewBox="0 0 700.000000 700.000000"
 preserveAspectRatio="xMidYMid meet">
<metadata>
Created by potrace 1.14, written by Peter Selinger 2001-2017
</metadata>
<g transform="translate(0.000000,700.000000) scale(0.100000,-0.100000)"
fill="#000000" stroke="none">
<path d="M324 6984 c-116 -31 -229 -124 -278 -229 -47 -99 -46 -34 -46 -1892
l0 -1753 960 0 960 0 158 -128 c86 -71 184 -151 218 -178 180 -145 330 -268
338 -275 6 -5 -395 -9 -890 -9 -494 0 -1089 0 -1322 0 l-422 0 0 -1067 c0
-1142 -1 -1109 50 -1217 28 -58 109 -143 171 -177 24 -14 72 -33 105 -42 56
-16 278 -17 3167 -17 2247 0 3121 3 3159 11 133 28 251 123 307 244 41 91 41
85 41 1198 l0 1067 -117 0 c-65 0 -680 0 -1367 0 -913 0 -1247 3 -1239 11 7 7
35 28 63 48 28 20 203 147 389 284 l339 247 966 0 966 0 0 1745 c0 1254 -3
1759 -11 1797 -35 162 -158 290 -322 334 -78 21 -6266 19 -6343 -2z m838
-2175 c73 -60 142 -118 153 -127 11 -9 74 -62 140 -117 66 -55 131 -110 145
-121 14 -12 68 -57 120 -100 52 -43 97 -81 100 -84 3 -3 30 -25 60 -50 30 -25
61 -50 68 -57 7 -7 34 -29 60 -50 26 -21 49 -40 52 -43 3 -3 30 -25 60 -50 30
-25 57 -47 60 -50 3 -3 32 -28 65 -55 33 -28 62 -52 65 -55 3 -3 30 -25 60
-50 30 -25 64 -52 75 -62 58 -48 183 -153 205 -172 14 -11 63 -52 110 -91 47
-38 91 -75 97 -82 7 -6 24 -20 38 -31 l25 -20 -54 -139 c-30 -76 -84 -214
-121 -308 -36 -93 -69 -178 -73 -188 -6 -15 -26 -2 -132 83 -69 55 -132 106
-140 113 -9 6 -40 33 -70 58 -30 25 -149 121 -265 214 -115 94 -219 177 -230
186 -30 26 -702 570 -850 689 -71 57 -135 109 -141 115 -6 5 -26 21 -44 35
-18 14 -42 33 -54 44 -11 10 -58 48 -103 84 -87 68 -86 66 -48 108 6 6 26 29
45 50 19 22 87 98 150 169 63 72 117 132 120 135 3 3 30 33 59 68 30 34 55 62
57 62 2 0 63 -50 136 -111z m5034 -110 c55 -69 110 -141 124 -159 14 -18 62
-80 108 -138 45 -58 82 -108 81 -111 0 -3 -37 -32 -82 -64 -366 -261 -687
-489 -760 -540 -49 -34 -95 -68 -102 -74 -8 -7 -18 -13 -23 -13 -6 0 -12 -4
-14 -9 -1 -5 -19 -19 -38 -32 -20 -13 -174 -123 -343 -244 -169 -121 -316
-224 -325 -230 -9 -5 -19 -12 -22 -15 -17 -19 -701 -500 -710 -500 -6 0 -17 6
-24 13 -7 6 -41 37 -76 67 -34 30 -71 62 -80 70 -9 8 -48 43 -86 76 -38 34
-80 71 -93 82 l-25 19 56 159 c31 88 59 168 62 179 3 11 36 41 73 67 38 26
543 380 1123 787 580 407 1060 739 1066 738 7 -1 56 -59 110 -128z m-3009
-1434 c35 -3 80 -7 100 -10 21 -2 66 -7 100 -10 35 -3 80 -8 100 -10 42 -5
161 -16 181 -18 6 0 12 -4 12 -7 0 -8 -24 -70 -45 -115 -7 -16 -32 -77 -55
-135 -23 -58 -50 -123 -60 -145 -9 -22 -71 -172 -136 -332 -65 -161 -122 -293
-125 -293 -7 0 -174 141 -325 276 -34 30 -75 64 -90 77 -16 12 -39 31 -51 42
l-22 20 35 85 c19 47 38 94 43 105 5 11 22 52 36 90 15 39 30 75 34 80 4 6 16
33 26 60 10 28 28 73 40 100 12 28 28 67 34 88 18 52 37 69 74 63 18 -3 60 -8
94 -11z m548 -586 c95 -74 92 -71 162 -129 l63 -52 -173 -127 c-297 -219 -397
-291 -397 -287 0 3 34 94 76 203 41 109 93 245 115 303 22 58 45 117 51 133 7
17 15 24 22 19 6 -5 42 -33 81 -63z"/>
</g>
</svg>
