<svg width="32" height="32" viewBox="0 0 32 32" fill="none" xmlns="http://www.w3.org/2000/svg">
<path fill-rule="evenodd" clip-rule="evenodd" d="M0 2C0 0.895431 0.895431 0 2 0H30C31.1046 0 32 0.895431 32 2V17.7815H23.1667L19.4722 20.4778H32V30C32 31.1046 31.1046 32 30 32H2C0.895431 32 0 31.1046 0 30V20.4778H12.0833L8.77778 17.7815H0V2ZM4.69444 9.5L2.55556 11.9074L12.1806 19.7074L13.3472 16.7222L4.69444 9.5ZM12.6667 20.0926L14.9028 22.0185L16.8472 17.3L13.9306 17.0111L12.6667 20.0926ZM16.6528 19.4185L15.4861 22.5L18.1111 20.5741L16.6528 19.4185ZM16.9444 18.7444L17.5278 17.1074L27.8333 9.88519L29.7778 12.3889L18.6944 20.2852L16.9444 18.7444Z" fill="#0F172A"/>
</svg>
