<svg width="128" height="128" viewBox="0 0 128 128" fill="none" xmlns="http://www.w3.org/2000/svg">
<path fill-rule="evenodd" clip-rule="evenodd" d="M0 8C0 3.58172 3.58172 0 8 0H120C124.418 0 128 3.58172 128 8V71.1259H93.3189C92.8951 71.1259 92.4822 71.2606 92.1398 71.5104L82.8428 78.2956C81.2796 79.4365 82.0866 81.9111 84.0219 81.9111H128V120C128 124.418 124.418 128 120 128H8C3.58172 128 0 124.418 0 120V81.9111H42.7172C44.5983 81.9111 45.439 79.5503 43.9814 78.3613L35.663 71.5761C35.3061 71.285 34.8595 71.1259 34.3989 71.1259H0V8ZM17.4898 39.4497L11.6123 46.0651C10.855 46.9174 10.9624 48.2294 11.8482 48.9473L46.5963 77.1068C47.6482 77.9593 49.2254 77.5421 49.7183 76.281L52.8648 68.2298C53.1779 67.4288 52.9438 66.5174 52.2836 65.9664L20.2665 39.2426C19.437 38.5502 18.2075 38.6419 17.4898 39.4497ZM51.7589 81.3111L57.5122 86.2663C58.5455 87.1563 60.1469 86.7738 60.6665 85.5129L66.364 71.6871C66.8746 70.4479 66.0457 69.067 64.712 68.9349L57.2045 68.1913C56.3249 68.1041 55.4924 68.6048 55.157 69.4226L51.2137 79.0367C50.887 79.8332 51.1066 80.7493 51.7589 81.3111ZM65.6425 80.2323L64.3354 83.6847C63.6303 85.5471 65.7834 87.1834 67.389 86.0054L70.33 83.8477C71.3942 83.0668 71.4235 81.4873 70.389 80.6676L68.7551 79.3729C67.6941 78.5322 66.1219 78.9663 65.6425 80.2323ZM68.2327 73.701L69.8971 69.0302C70.0363 68.6395 70.2936 68.3018 70.6332 68.0637L109.774 40.6336C110.647 40.0215 111.847 40.2024 112.501 41.0447L117.833 47.9094C118.53 48.8073 118.34 50.1053 117.414 50.765L76.0695 80.2205C75.3129 80.7595 74.2847 80.7066 73.5874 80.0927L68.7951 75.8734C68.1808 75.3326 67.958 74.472 68.2327 73.701Z" fill="#0F172A"/>
</svg>
