<svg width="100" height="100" viewBox="0 0 100 100" fill="none" xmlns="http://www.w3.org/2000/svg">
<mask id="path-1-inside-1_25_40" fill="white">
<path d="M0 34C0 15.2223 15.2223 0 34 0H66C84.7777 0 100 15.2223 100 34V66C100 84.7777 84.7777 100 66 100H34C15.2223 100 0 84.7777 0 66V34Z"/>
</mask>
<path d="M0 34C0 15.2223 15.2223 0 34 0H66C84.7777 0 100 15.2223 100 34V66C100 84.7777 84.7777 100 66 100H34C15.2223 100 0 84.7777 0 66V34Z" fill="white"/>
<path d="M34 1H66V-1H34V1ZM99 34V66H101V34H99ZM66 99H34V101H66V99ZM1 66V34H-1V66H1ZM34 99C15.7746 99 1 84.2254 1 66H-1C-1 85.33 14.67 101 34 101V99ZM99 66C99 84.2254 84.2254 99 66 99V101C85.33 101 101 85.33 101 66H99ZM66 1C84.2254 1 99 15.7746 99 34H101C101 14.67 85.33 -1 66 -1V1ZM34 -1C14.67 -1 -1 14.67 -1 34H1C1 15.7746 15.7746 1 34 1V-1Z" fill="#DFDFDF" mask="url(#path-1-inside-1_25_40)"/>
<path d="M25.6869 38.4342L24.067 40.2439C23.3026 41.0978 23.4107 42.418 24.3036 43.1362L39.9371 55.7109C40.9881 56.5562 42.5574 56.1402 43.0515 54.8852L43.8754 52.7928C44.1922 51.9884 43.9562 51.0715 43.2904 50.5199L28.453 38.228C27.6253 37.5423 26.4037 37.6334 25.6869 38.4342Z" fill="#E70012"/>
<path d="M45.4493 60.249L44.1381 59.1281C43.4802 58.5657 43.2587 57.644 43.5892 56.844L45.0149 53.394C45.3516 52.5794 46.1818 52.0812 47.059 52.1674L48.7724 52.3359C50.1091 52.4673 50.9389 53.8527 50.4239 55.0932L48.596 59.4957C48.0751 60.7503 46.4819 61.1317 45.4493 60.249Z" fill="#E70012"/>
<path d="M52.5162 60.233C53.2638 59.6886 53.2843 58.5806 52.5573 58.0089C51.818 57.4275 50.7269 57.7294 50.3917 58.6082C49.897 59.9052 51.394 61.0501 52.5162 60.233Z" fill="#E70012"/>
<path d="M52.6146 52.8161L52.116 54.2048C51.838 54.9793 52.0627 55.8451 52.6824 56.3866L53.9959 57.5345C54.6914 58.1422 55.7126 58.1947 56.4667 57.6614L75.8006 43.9899C76.7335 43.3301 76.9251 42.0243 76.221 41.1244L74.7616 39.2593C74.1079 38.4238 72.9154 38.2441 72.0445 38.85L53.3549 51.85C53.0138 52.0873 52.755 52.425 52.6146 52.8161Z" fill="#E70012"/>
<path d="M35.7492 54.0085L37.4693 55.4011C38.9341 56.587 38.0955 58.9555 36.2108 58.9555H18C16.8954 58.9555 16 58.0601 16 56.9555V55.563C16 54.4584 16.8954 53.563 18 53.563H34.4907C34.9489 53.563 35.3931 53.7202 35.7492 54.0085Z" fill="#E70012"/>
<path d="M63.668 53.9433L61.7455 55.3359C60.1753 56.4733 60.9799 58.9555 62.9188 58.9555H81C82.1046 58.9555 83 58.0601 83 56.9555V55.563C83 54.4584 82.1046 53.563 81 53.563H64.8413C64.4199 53.563 64.0092 53.6961 63.668 53.9433Z" fill="#E70012"/>
</svg>
