<svg width="350" height="500" viewBox="0 0 350 500" fill="none" xmlns="http://www.w3.org/2000/svg">
<rect width="350" height="500" fill="#333333"/>
<g clip-path="url(#clip0_33_51)">
<path d="M125 234C125 215.222 140.222 200 159 200H191C209.778 200 225 215.222 225 234V266C225 284.778 209.778 300 191 300H159C140.222 300 125 284.778 125 266V234Z" fill="white"/>
<mask id="mask0_33_51" style="mask-type:luminance" maskUnits="userSpaceOnUse" x="125" y="200" width="100" height="100">
<path d="M125 234C125 215.222 140.222 200 159 200H191C209.778 200 225 215.222 225 234V266C225 284.778 209.778 300 191 300H159C140.222 300 125 284.778 125 266V234Z" fill="#DFDFDF"/>
</mask>
<g mask="url(#mask0_33_51)">
<path d="M159 201H191V199H159V201ZM224 234V266H226V234H224ZM191 299H159V301H191V299ZM126 266V234H124V266H126ZM159 299C140.775 299 126 284.225 126 266H124C124 285.33 139.67 301 159 301V299ZM224 266C224 284.225 209.225 299 191 299V301C210.33 301 226 285.33 226 266H224ZM191 201C209.225 201 224 215.775 224 234H226C226 214.67 210.33 199 191 199V201ZM159 199C139.67 199 124 214.67 124 234H126C126 215.775 140.775 201 159 201V199Z" fill="#DFDFDF"/>
</g>
<path d="M150.687 238.434L149.067 240.244C148.303 241.098 148.411 242.418 149.304 243.136L164.937 255.711C165.988 256.556 167.557 256.14 168.052 254.885L168.875 252.793C169.192 251.988 168.956 251.071 168.29 250.52L153.453 238.228C152.625 237.542 151.404 237.633 150.687 238.434Z" fill="#E70012"/>
<path d="M170.449 260.249L169.138 259.128C168.48 258.566 168.259 257.644 168.589 256.844L170.015 253.394C170.352 252.579 171.182 252.081 172.059 252.167L173.772 252.336C175.109 252.467 175.939 253.853 175.424 255.093L173.596 259.496C173.075 260.75 171.482 261.132 170.449 260.249Z" fill="#E70012"/>
<path d="M177.516 260.233C178.264 259.689 178.284 258.581 177.557 258.009C176.818 257.428 175.727 257.729 175.392 258.608C174.897 259.905 176.394 261.05 177.516 260.233Z" fill="#E70012"/>
<path d="M177.615 252.816L177.116 254.205C176.838 254.979 177.063 255.845 177.682 256.387L178.996 257.535C179.691 258.142 180.713 258.195 181.467 257.661L200.801 243.99C201.733 243.33 201.925 242.024 201.221 241.124L199.762 239.259C199.108 238.424 197.915 238.244 197.044 238.85L178.355 251.85C178.014 252.087 177.755 252.425 177.615 252.816Z" fill="#E70012"/>
<path d="M160.749 254.008L162.469 255.401C163.934 256.587 163.096 258.955 161.211 258.955H143C141.895 258.955 141 258.06 141 256.955V255.563C141 254.458 141.895 253.563 143 253.563H159.491C159.949 253.563 160.393 253.72 160.749 254.008Z" fill="#E70012"/>
<path d="M188.668 253.943L186.746 255.336C185.175 256.473 185.98 258.955 187.919 258.955H206C207.105 258.955 208 258.06 208 256.955V255.563C208 254.458 207.105 253.563 206 253.563H189.841C189.42 253.563 189.009 253.696 188.668 253.943Z" fill="#E70012"/>
</g>
<defs>
<clipPath id="clip0_33_51">
<rect width="100" height="100" fill="white" transform="translate(125 200)"/>
</clipPath>
</defs>
</svg>
